<?xml version="1.0" encoding="UTF-8"?>
<svg width="1199.85373px" height="740.168291px" viewBox="0 0 1199.85373 740.168291" version="1.1" xmlns="http://www.w3.org/2000/svg" xmlns:xlink="http://www.w3.org/1999/xlink">
    <title>Group 36</title>
    <defs>
        <polygon id="path-1" points="329 512 574 512 574 142 329 142"></polygon>
        <filter x="-9.8%" y="-3.2%" width="113.1%" height="106.5%" filterUnits="objectBoundingBox" id="filter-2">
            <feMorphology radius="4" operator="erode" in="SourceAlpha" result="shadowSpreadOuter1"></feMorphology>
            <feOffset dx="-12" dy="0" in="shadowSpreadOuter1" result="shadowOffsetOuter1"></feOffset>
            <feGaussianBlur stdDeviation="6" in="shadowOffsetOuter1" result="shadowBlurOuter1"></feGaussianBlur>
            <feColorMatrix values="0 0 0 0 0   0 0 0 0 0   0 0 0 0 0  0 0 0 0.18 0" type="matrix" in="shadowBlurOuter1"></feColorMatrix>
        </filter>
    </defs>
    <g id="Event-log-/-Notifications-page" stroke="none" stroke-width="1" fill="none" fill-rule="evenodd">
        <g id="Group-36" transform="translate(-0.000000, 0.000000)">
            <path d="M49.0052543,681.898891 L990.285495,681.898891 C994.260917,678.298673 998.134132,674.623786 1001.89563,670.876119 C1049.03856,623.913555 1078.88216,565.863947 1077.98011,508.191469 C1076.62407,421.661484 1022.64151,337.257226 939.808918,292.064997 C772.737772,200.914938 711.253613,83.8988908 507.268678,83.8988908 C245.921187,83.8988908 1.8189894e-12,401.797433 1.8189894e-12,531.367455 C1.8189894e-12,630.333266 49.0052543,681.898891 49.0052543,681.898891" id="Fill-1" fill="#BDE0F3"></path>
            <g id="Group-29" transform="translate(320.374481, 546.036841) rotate(-78.000000) translate(-320.374481, -546.036841) translate(192.170031, 430.122191)">
                <path d="M9.4023,220.757 C44.6233,114.43 134.7033,33.1 246.1053,10.304" id="Stroke-7" stroke="#EC1C24" stroke-width="3"></path>
                <path d="M256.4089,10.304 C256.4089,15.995 251.7959,20.608 246.1049,20.608 C240.4139,20.608 235.8009,15.995 235.8009,10.304 C235.8009,4.613 240.4139,-2.27373675e-13 246.1049,-2.27373675e-13 C251.7959,-2.27373675e-13 256.4089,4.613 256.4089,10.304" id="Fill-47" fill="#EC1C24"></path>
                <path d="M20.608,221.5253 C20.608,227.2163 15.995,231.8293 10.304,231.8293 C4.613,231.8293 0,227.2163 0,221.5253 C0,215.8343 4.613,211.2213 10.304,211.2213 C15.995,211.2213 20.608,215.8343 20.608,221.5253" id="Fill-48" fill="#EC1C24"></path>
            </g>
            <g id="Group-29" transform="translate(419.374481, 140.036841) rotate(12.000000) translate(-419.374481, -140.036841) translate(291.170031, 24.122191)">
                <path d="M9.4023,220.757 C44.6233,114.43 134.7033,33.1 246.1053,10.304" id="Stroke-7" stroke="#EC1C24" stroke-width="3"></path>
                <path d="M256.4089,10.304 C256.4089,15.995 251.7959,20.608 246.1049,20.608 C240.4139,20.608 235.8009,15.995 235.8009,10.304 C235.8009,4.613 240.4139,-2.27373675e-13 246.1049,-2.27373675e-13 C251.7959,-2.27373675e-13 256.4089,4.613 256.4089,10.304" id="Fill-47" fill="#EC1C24"></path>
                <path d="M20.608,221.5253 C20.608,227.2163 15.995,231.8293 10.304,231.8293 C4.613,231.8293 0,227.2163 0,221.5253 C0,215.8343 4.613,211.2213 10.304,211.2213 C15.995,211.2213 20.608,215.8343 20.608,221.5253" id="Fill-48" fill="#EC1C24"></path>
            </g>
            <polygon id="Fill-9" fill="#7D1007" points="655.853731 570.668891 1199.85373 570.668891 1199.85373 69.6688908 655.853731 69.6688908"></polygon>
            <g id="Group-35" transform="translate(283.680131, 439.168291)">
                <path d="M534.790546,241.988838 C534.790546,210.796164 509.736674,185.471089 478.65598,185.000421 C476.736566,131.969813 434.407088,89.2484039 381.534827,86.7165963 C357.808098,35.5179183 305.970782,0 245.829417,0 C178.156492,0 120.996606,44.9680169 102.5732,106.650863 C100.492814,106.517011 98.4019293,106.424277 96.2874239,106.424277 C43.1098416,106.424277 0,149.534119 0,202.711701 C0,255.74056 42.8692586,298.746294 95.8412518,298.988627 L95.8412518,299 L96.2795502,299 C96.2821748,299 96.2847993,299 96.2874239,299 C96.2909232,299 96.2935478,299 96.2961723,299 L245.813669,299 C245.818918,299 245.824167,299 245.829417,299 C245.834666,299 245.839915,299 245.846039,299 L477.77151,299 C477.774134,299 477.776759,299 477.779383,299 C477.782883,299 477.785507,299 477.788132,299 L478.732092,299 L478.732092,298.975504 C509.776917,298.464594 534.790546,273.155266 534.790546,241.988838" id="Fill-3" stroke="#BDE0F3" stroke-width="4" fill="#FEFEFE"></path>
                <path d="M296.533365,202.875436 C299.446039,202.875436 301.408353,200.498939 301.423632,198.000448 C301.431115,196.850286 301.025858,195.674237 300.111798,194.69308 C297.168625,191.530468 291.661353,186.772713 291.661353,171.188018 C291.661353,159.350909 283.361765,149.875123 272.170628,147.550399 L272.170628,144.375587 C272.170628,141.683692 269.989023,139.5006 267.298616,139.5006 C264.608209,139.5006 262.426604,141.683692 262.426604,144.375587 L262.426604,147.550399 C251.235467,149.875123 242.935879,159.350909 242.935879,171.188018 C242.935879,186.772713 237.428607,191.530468 234.485434,194.69308 C233.571374,195.675724 233.166117,196.850286 233.1736,198.000448 C233.190516,200.498939 235.151193,202.875436 238.063867,202.875436 L296.533365,202.875436 Z M267.298616,217.500398 C272.679431,217.500398 277.043979,213.135701 277.043979,207.750423 L257.553253,207.750423 C257.553253,213.135701 261.917801,217.500398 267.298616,217.500398 Z" id="bell" fill="#EE0000"></path>
            </g>
            <g id="Group-30" transform="translate(38.347026, 139.942291)">
                <path d="M434.629106,196.666514 C434.629106,171.315946 414.267598,150.734029 389.008037,150.351513 C387.448112,107.253059 353.046563,72.5329838 310.076799,70.4753609 C290.793873,28.8657329 248.665217,0 199.787787,0 C144.78939,0 98.3350343,36.5459134 83.3621662,86.6761193 C81.6714174,86.5673369 79.9721366,86.4919713 78.2536589,86.4919713 C35.0357575,86.4919713 0,121.527729 0,164.74563 C0,207.842662 34.8402336,242.793811 77.8910508,242.990757 L77.8910508,243 L78.2472599,243 C78.2493929,243 78.2515259,243 78.2536589,243 C78.2565028,243 78.2586358,243 78.2607688,243 L199.774989,243 C199.779255,243 199.783521,243 199.787787,243 C199.792053,243 199.796319,243 199.801296,243 L388.28922,243 C388.291353,243 388.293486,243 388.295619,243 C388.298463,243 388.300596,243 388.302729,243 L389.069894,243 L389.069894,242.980092 C414.300304,242.56487 434.629106,221.995752 434.629106,196.666514" id="Fill-3-Copy" stroke="#BDE0F3" stroke-width="4" fill="#FEFEFE" transform="translate(217.314553, 121.500000) scale(-1, 1) translate(-217.314553, -121.500000) "></path>
                <path d="M218.006706,98.7266 C198.950846,98.7266 183.506706,114.170741 183.506706,133.2266 C183.506706,152.282459 198.950846,167.7266 218.006706,167.7266 C237.062565,167.7266 252.506706,152.282459 252.506706,133.2266 C252.506706,114.170741 237.062565,98.7266 218.006706,98.7266 Z M193.30121,122.869739 C194.675868,119.684668 196.565177,116.880716 198.948821,114.471496 C201.346008,112.062275 204.129183,110.177094 207.305117,108.795535 C210.47428,107.413977 213.880452,106.7266 217.489776,106.7266 C221.092329,106.7266 224.498502,107.413977 227.674436,108.795535 C230.843599,110.177094 233.633545,112.075886 236.030732,114.471496 C238.427919,116.880716 240.303685,119.684668 241.678343,122.869739 C242.592524,124.938675 243.195207,127.068861 243.506706,129.307939 L232.001562,129.307939 C230.870685,129.307939 229.807526,129.886424 229.184528,130.832418 L227.633806,133.214416 L220.022398,118.037687 C219.189477,116.370288 217.157962,115.689717 215.505664,116.547237 C214.713373,116.948773 214.131006,117.63615 213.83305,118.473252 L207.244172,137.7266 L204.163041,131.24076 C203.607761,130.056567 202.415939,129.314745 201.115769,129.314745 L191.506706,129.314745 C191.811433,127.068861 192.414116,124.918258 193.30121,122.869739 Z M241.623528,143.733357 C240.253331,146.929303 238.370153,149.70633 235.994245,152.071195 C233.618336,154.436059 230.830693,156.300924 227.665065,157.672546 C224.506187,159.044168 221.111067,159.7266 217.513456,159.7266 C213.922594,159.7266 210.527474,159.044168 207.361846,157.672546 C204.202967,156.300924 201.422074,154.429303 199.032666,152.071195 C196.643258,149.713086 194.77358,146.929303 193.403383,143.733357 C192.417921,141.415789 191.783445,139.010384 191.506706,136.490114 L199.032666,136.490114 L204.722697,148.442816 C205.276176,149.618492 206.46413,150.354978 207.760081,150.354978 L207.942324,150.354978 C209.299021,150.280654 210.486976,149.382005 210.932459,148.084708 L217.594452,128.7266 L224.229447,141.882005 C224.769426,142.949573 225.849385,143.659032 227.037339,143.719843 C228.178045,143.780654 229.379499,143.213086 230.027474,142.20633 L233.760081,136.49687 L243.506706,136.49687 C243.243466,139.010384 242.61574,141.429303 241.623528,143.733357 Z" id="pficon-running" fill="#EE0000"></path>
            </g>
            <polygon id="Stroke-12" stroke="#EE0000" stroke-width="7" points="588.853731 533.668891 1164.85373 533.668891 1164.85373 20.6688908 588.853731 20.6688908"></polygon>
            <g id="Group-34" transform="translate(588.853731, 19.668891)">
                <polygon id="Fill-11" fill="#FEFEFE" points="0 514 576 514 576 1 0 1"></polygon>
                <polygon id="Fill-13" fill="#EE0000" points="0 99 576 99 576 0 0 0"></polygon>
                <path d="M456,36 C463.732782,36 470,42.2687143 470,49.9990359 C470,57.7312857 463.732782,64 456,64 C448.267218,64 442,57.7312857 442,49.9990359 C442,42.2687143 448.267218,36 456,36" id="Fill-14" fill="#FEFEFE"></path>
                <path d="M513,36 C520.732782,36 527,42.2687143 527,49.9990359 C527,57.7312857 520.732782,64 513,64 C505.267218,64 499,57.7312857 499,49.9990359 C499,42.2687143 505.267218,36 513,36" id="Fill-15" fill="#FEFEFE"></path>
                <polygon id="Fill-35" fill="#E7F1FA" points="22 317 180 317 180 170 22 170"></polygon>
                <polygon id="Fill-37" fill="#262525" points="0 141 576 141 576 99 0 99"></polygon>
                <polygon id="Fill-38" fill="#E7F1FA" points="22 487 180 487 180 340 22 340"></polygon>
                <polygon id="Fill-39" fill="#E7F1FA" points="202 317 360 317 360 170 202 170"></polygon>
                <polygon id="Fill-40" fill="#E7F1FA" points="202 487 360 487 360 340 202 340"></polygon>
                <polygon id="Fill-41" fill="#E8E2F0" points="385 307 543 307 543 160 385 160"></polygon>
                <polygon id="Fill-42" fill="#E8E2F0" points="385 487 543 487 543 340 385 340"></polygon>
                <g id="Fill-53">
                    <use fill="black" fill-opacity="1" filter="url(#filter-2)" xlink:href="#path-1"></use>
                    <use fill="#FFFFFF" fill-rule="evenodd" xlink:href="#path-1"></use>
                </g>
                <g id="Group-33" transform="translate(329.000000, 197.000000)">
                    <g id="Group-28">
                        <polygon id="Fill-39" fill="#2B9AF3" points="9.41554527e-13 51.8222222 29.7344043 51.8222222 29.7344043 0 9.41554527e-13 0"></polygon>
                        <polygon id="Fill-39-Copy-2" fill="#F0F0F0" points="0 53 245 53 245 51.8222222 0 51.8222222"></polygon>
                    </g>
                    <g id="Group-32" transform="translate(40.048077, 9.422222)" fill="#F5F5F5">
                        <rect id="Rectangle" x="0" y="0" width="115.432692" height="10.6"></rect>
                        <rect id="Rectangle-Copy-2" x="0" y="16.4888889" width="188.461538" height="17.6666667"></rect>
                    </g>
                </g>
                <g id="Group-33-Copy" transform="translate(329.000000, 250.000000)">
                    <g id="Group-28">
                        <polygon id="Fill-39" fill="#2B9AF3" points="9.41554527e-13 51.8222222 29.7344043 51.8222222 29.7344043 0 9.41554527e-13 0"></polygon>
                        <polygon id="Fill-39-Copy-2" fill="#F0F0F0" points="0 53 245 53 245 51.8222222 0 51.8222222"></polygon>
                    </g>
                    <g id="Group-32" transform="translate(40.048077, 9.422222)" fill="#F5F5F5">
                        <rect id="Rectangle" x="0" y="0" width="51.8269231" height="10.6"></rect>
                        <rect id="Rectangle-Copy-2" x="0" y="16.4888889" width="188.461538" height="17.6666667"></rect>
                    </g>
                </g>
                <g id="Group-33-Copy-4" transform="translate(329.000000, 409.000000)">
                    <g id="Group-28">
                        <polygon id="Fill-39" fill="#2B9AF3" points="9.41554527e-13 51.8222222 29.7344043 51.8222222 29.7344043 0 9.41554527e-13 0"></polygon>
                        <polygon id="Fill-39-Copy-2" fill="#F0F0F0" points="0 53 245 53 245 51.8222222 0 51.8222222"></polygon>
                    </g>
                    <g id="Group-32" transform="translate(40.048077, 9.422222)" fill="#F5F5F5">
                        <rect id="Rectangle" x="0" y="0" width="74.2067308" height="10.6"></rect>
                        <rect id="Rectangle-Copy-2" x="0" y="16.4888889" width="188.461538" height="17.6666667"></rect>
                    </g>
                </g>
                <g id="Group-33-Copy-5" transform="translate(329.000000, 462.000000)">
                    <g id="Group-28" fill="#2B9AF3">
                        <polygon id="Fill-39" points="0 51 29.7982147 51 29.7982147 0 0 0"></polygon>
                    </g>
                    <g id="Group-32" transform="translate(40.134021, 9.488372)" fill="#F5F5F5">
                        <rect id="Rectangle" x="0" y="0" width="166.438144" height="10.6744186"></rect>
                        <rect id="Rectangle-Copy-2" x="0" y="16.6046512" width="188.865979" height="17.7906977"></rect>
                    </g>
                </g>
                <g id="Group-33-Copy-2" transform="translate(329.000000, 303.000000)">
                    <g id="Group-28">
                        <polygon id="Fill-39" fill="#2B9AF3" points="9.41554527e-13 51.8222222 29.7344043 51.8222222 29.7344043 0 9.41554527e-13 0"></polygon>
                        <polygon id="Fill-39-Copy-2" fill="#F0F0F0" points="0 53 245 53 245 51.8222222 0 51.8222222"></polygon>
                    </g>
                    <g id="Group-32" transform="translate(40.048077, 9.422222)" fill="#F5F5F5">
                        <rect id="Rectangle" x="0" y="0" width="144.879808" height="10.6"></rect>
                        <rect id="Rectangle-Copy-2" x="0" y="16.4888889" width="188.461538" height="17.6666667"></rect>
                    </g>
                </g>
                <g id="Group-33-Copy-3" transform="translate(329.000000, 356.000000)">
                    <g id="Group-28">
                        <polygon id="Fill-39" fill="#2B9AF3" points="9.41554527e-13 51.8222222 29.7344043 51.8222222 29.7344043 0 9.41554527e-13 0"></polygon>
                        <polygon id="Fill-39-Copy-2" fill="#F0F0F0" points="0 53 245 53 245 51.8222222 0 51.8222222"></polygon>
                    </g>
                    <g id="Group-32" transform="translate(40.048077, 9.422222)" fill="#F5F5F5">
                        <rect id="Rectangle" x="0" y="0" width="113.076923" height="10.6"></rect>
                        <rect id="Rectangle-Copy-2" x="0" y="16.4888889" width="188.461538" height="17.6666667"></rect>
                    </g>
                </g>
                <polygon id="Fill-39-Copy" fill="#F0F0F0" points="329 197 574 197 574 196 329 196"></polygon>
                <rect id="Rectangle-Copy-2" fill="#F0F0F0" x="338" y="160" width="131" height="18"></rect>
                <rect id="Rectangle-Copy-3" fill="#F0F0F0" x="502" y="160" width="18" height="18"></rect>
                <rect id="Rectangle-Copy-4" fill="#F0F0F0" x="525" y="160" width="18" height="18"></rect>
                <rect id="Rectangle-Copy-5" fill="#F0F0F0" x="547" y="160" width="18" height="18"></rect>
            </g>
            <g id="Group-31" transform="translate(832.152987, 557.138001) rotate(68.000000) translate(-832.152987, -557.138001) translate(779.821913, 490.373658)">
                <path d="M12.8397,12.5636 C61.1987,52.1876 88.2814651,91.318814 104.662147,133.528686" id="Stroke-44" stroke="#EC1C24" stroke-width="3"></path>
                <path d="M20.608,10.304 C20.608,15.995 15.995,20.608 10.304,20.608 C4.613,20.608 -5.7967343e-13,15.995 -5.7967343e-13,10.304 C-5.7967343e-13,4.613 4.613,5.79721109e-13 10.304,5.79721109e-13 C15.995,5.79721109e-13 20.608,4.613 20.608,10.304" id="Fill-45" fill="#EC1C24"></path>
            </g>
        </g>
    </g>
</svg>